<?xml version="1.0" encoding="utf-8"?>
<!-- Generator: Adobe Illustrator 13.0.0, SVG Export Plug-In . SVG Version: 6.00 Build 14948)  -->
<!DOCTYPE svg PUBLIC "-//W3C//DTD SVG 1.0//EN" "http://www.w3.org/TR/2001/REC-SVG-20010904/DTD/svg10.dtd">
<svg version="1.0" id="Layer_1" xmlns="http://www.w3.org/2000/svg" xmlns:xlink="http://www.w3.org/1999/xlink" x="0px" y="0px"
	 width="400.88px" height="300px" viewBox="0 0 400.88 300" enable-background="new 0 0 400.88 300" xml:space="preserve">
<path d="M57.733,0.28c15.151-0.238,33.573,5.428,46,20.761c5.629,5.446,15.973,31.626,15.973,31.626l61.955,164.537
	c7.968,19.756,31.928,21.236,38.963,1.488l19.245-51.893l32.859,86.48c-15.973,29.158-31.435,36.305-49.765,42.967
	c-21.346,6.68-46.932,4.477-65.245-6.9c-6.086-3.947-22.059-14.318-32.86-40.516L59.616,66.494v166.036l24.417-70.16l31.325,87.586
	c-4.569,20.113-19.116,36.918-36.021,44.822c-18.495,8.717-40.554,5.629-57.276-4.945C5.41,277.479,0.713,262.904,0,236.961
	L0.22,57.365c1.9-29.908,21.017-46.192,37.794-53.484C45.671,1.158,48.943,0.417,57.733,0.28z"/>
<path d="M343.146,299.711c-15.15,0.266-33.572-5.428-46.019-20.734c-5.629-5.445-15.955-31.625-15.955-31.625L219.219,82.814
	c-7.986-19.784-31.928-21.264-38.964-1.499l-19.245,51.895l-32.86-86.481c15.955-29.131,31.453-36.305,49.765-42.984
	c21.364-6.68,46.95-4.45,65.245,6.926c6.104,3.948,22.059,14.319,32.859,40.518l65.244,182.311V67.49l-24.397,70.16l-31.344-87.586
	c4.569-20.14,19.135-36.926,36.04-44.821c18.478-8.699,40.555-5.638,57.258,4.943c16.668,12.327,21.347,26.93,22.06,52.845
	l-0.237,179.624c-1.864,29.908-20.999,46.201-37.795,53.484C355.245,298.852,351.955,299.582,343.146,299.711z"/>
</svg>
